<mxfile host="65bd71144e">
    <diagram id="hFjyuBP9kS8yiWHOacYP" name="Page-1">
        <mxGraphModel dx="792" dy="1668" grid="1" gridSize="10" guides="1" tooltips="1" connect="1" arrows="1" fold="1" page="1" pageScale="1" pageWidth="850" pageHeight="1100" background="#C7FFFB" math="0" shadow="0">
            <root>
                <mxCell id="0"/>
                <mxCell id="1" parent="0"/>
                <mxCell id="15" value="" style="group" vertex="1" connectable="0" parent="1">
                    <mxGeometry x="70" y="-110" width="930" height="440" as="geometry"/>
                </mxCell>
                <mxCell id="2" value="Are arguments same as last time?" style="whiteSpace=wrap;html=1;rounded=1;shadow=1;" parent="15" vertex="1">
                    <mxGeometry x="470.735" y="35.2" width="139.57750000000001" height="58.036" as="geometry"/>
                </mxCell>
                <mxCell id="3" value="Return result." style="whiteSpace=wrap;html=1;rounded=1;shadow=1;" parent="15" vertex="1">
                    <mxGeometry x="680" y="159.2" width="132.19" height="80" as="geometry"/>
                </mxCell>
                <mxCell id="8" value="Yes" style="edgeStyle=none;html=1;entryX=0;entryY=0;entryDx=0;entryDy=0;shadow=1;" parent="15" source="2" target="3" edge="1">
                    <mxGeometry relative="1" as="geometry"/>
                </mxCell>
                <mxCell id="4" value="Run input selectors.&lt;br&gt;Are the results of input selectors same as last time?" style="whiteSpace=wrap;html=1;rounded=1;shadow=1;" parent="15" vertex="1">
                    <mxGeometry x="251.88" y="158.4" width="168.12" height="81.6" as="geometry"/>
                </mxCell>
                <mxCell id="9" value="No" style="edgeStyle=none;html=1;entryX=1;entryY=0;entryDx=0;entryDy=0;shadow=1;" parent="15" source="2" target="4" edge="1">
                    <mxGeometry relative="1" as="geometry"/>
                </mxCell>
                <mxCell id="6" value="Return result." style="whiteSpace=wrap;html=1;rounded=1;shadow=1;" parent="15" vertex="1">
                    <mxGeometry x="470.7375" y="310" width="135.625" height="44" as="geometry"/>
                </mxCell>
                <mxCell id="13" value="Yes" style="edgeStyle=none;html=1;entryX=0;entryY=0;entryDx=0;entryDy=0;shadow=1;" parent="15" source="4" target="6" edge="1">
                    <mxGeometry relative="1" as="geometry"/>
                </mxCell>
                <mxCell id="7" value="Run result function." style="whiteSpace=wrap;html=1;rounded=1;shadow=1;" parent="15" vertex="1">
                    <mxGeometry x="59.9975" y="310" width="135.625" height="44" as="geometry"/>
                </mxCell>
                <mxCell id="14" value="No" style="edgeStyle=none;html=1;entryX=1;entryY=0;entryDx=0;entryDy=0;shadow=1;" parent="15" source="4" target="7" edge="1">
                    <mxGeometry relative="1" as="geometry"/>
                </mxCell>
            </root>
        </mxGraphModel>
    </diagram>
</mxfile>